<svg width="35" height="42" viewBox="0 0 35 42" fill="none" xmlns="http://www.w3.org/2000/svg">
<rect width="34.6667" height="42" rx="8" fill="white"/>
<path d="M20.6667 26.5C21.0667 25.1293 21.8958 23.9605 22.7167 22.7961C22.9333 22.491 23.15 22.1859 23.3583 21.8766C24.1833 20.652 24.6667 19.1695 24.6667 17.5668C24.6667 13.3859 21.3833 10 17.3333 10C13.2833 10 10 13.3859 10 17.5625C10 19.1652 10.4833 20.652 11.3083 21.8723C11.5167 22.1816 11.7333 22.4867 11.95 22.7918C12.775 23.9563 13.6042 25.1293 14 26.4957H20.6667V26.5ZM17.3333 32C19.175 32 20.6667 30.4617 20.6667 28.5625V27.875H14V28.5625C14 30.4617 15.4917 32 17.3333 32ZM14 17.5625C14 17.9406 13.7 18.25 13.3333 18.25C12.9667 18.25 12.6667 17.9406 12.6667 17.5625C12.6667 14.9027 14.7542 12.75 17.3333 12.75C17.7 12.75 18 13.0594 18 13.4375C18 13.8156 17.7 14.125 17.3333 14.125C15.4917 14.125 14 15.6633 14 17.5625Z" fill="#0283FA"/>
</svg>
